
<svg preserveAspectRatio="xMidYMid meet" data-bbox="0.1 0.3 429.7 82.8" viewBox="0.1 0.3 429.7 82.8" xmlns="http://www.w3.org/2000/svg" data-type="color" role="presentation" aria-hidden="true" aria-labelledby="svgcid--kgc8qtk13oq1"><defs></defs><title id="svgcid--kgc8qtk13oq1"></title>
  <g>
    <path d="M199.4.3h-12.9c-.4 0-.7.3-.7.6v3.7c0 .4.3.6.7.6h6.8c1 0 1.3.1 1.3 1.1v13.9h-3.4V7c0-.4-.3-.6-.7-.6-.4 0-.7.3-.7.6v13.8c0 .4.3.6.7.6h4.9c.4 0 .7-.3.7-.6V6.3c0-2.1-1.6-2.4-2.8-2.4h-6.1V1.5h11.4V4h-.5c-.4 0-.7.3-.7.6 0 .4.3.6.7.6h1.3c.4 0 .7-.3.7-.6V.9c.1-.4-.2-.6-.7-.6z" fill="#323232" data-color="1"></path>
    <path d="M223.6.3h-5c-.4 0-.7.3-.7.6v9c0 .3.3.6.7.6.4 0 .7-.3.7-.6V1.5h3.5v18.7h-3.5v-7.9c0-.4-.3-.6-.7-.6h-1.7c-1.7 0-1.8-.3-1.8-1.5V.9c0-.4-.3-.6-.7-.6h-5c-.4 0-.7.3-.7.6v20c0 .4.3.6.7.6h5c.2 0 .3-.1.5-.2.1-.1.2-.3.2-.5v-6.6c0-.4-.3-.6-.7-.6-.4 0-.7.3-.7.6v5.9h-3.6V1.5h3.6v8.7c0 1.7.5 2.7 3.2 2.7h1v7.9c0 .4.3.6.7.6h5c.4 0 .8-.3.8-.6V.8c0-.3-.4-.5-.8-.5z" fill="#323232" data-color="1"></path>
    <path d="M246.3 5c.4 0 .7-.3.7-.6V.9c0-.4-.3-.6-.7-.6h-12.7c-.4 0-.7.3-.7.6v9.9c0 .3.3.6.7.6s.7-.3.7-.6V1.5h11.3v2.3h-7c-.4 0-.7.3-.7.6V9c0 .4.3.6.7.6h5.2v2.1H236c-1.8 0-3.2 1.1-3.2 2.5v6.6c0 .4.3.6.7.6h12.7c.4 0 .7-.3.7-.6v-3.5c0-.4-.3-.6-.7-.6h-7v-1.9c0-.4-.3-.6-.7-.6-.4 0-.7.3-.7.6v2.6c0 .4.3.6.7.6h7v2.3h-11.3v-6c0-.7.8-1.3 1.8-1.3h8.4c.4 0 .7-.3.7-.6V9c0-.4-.3-.6-.7-.6h-5.1V5h7z" fill="#323232" data-color="1"></path>
    <path fill="#323232" d="M174.2 11.1v2.6H1.2v-2.6h173z" data-color="1"></path>
    <path fill="#323232" d="M429.8 11.1v2.6H255.7v-2.6h174.1z" data-color="1"></path>
    <path fill="#323232" d="M429.8 80.5v2.6H1.2v-2.6h428.6z" data-color="1"></path>
    <path d="M305 29.5h-8.7c-.6 0-1.1.4-1.1.9v22.5c-.2 6.7 1.5 10.3 5.8 12 .5.3 1.1 0 1.4-.4.2-.3.2-.5.2-.6-.1-.3-.2-.5-.6-.6-3.5-1.3-5-4.4-5-10.4V31h6.6v27.1c0 5.3 4.1 7.7 7.9 7.7 9.2 0 10-6.2 10-13V30.3c0-.2-.1-.4-.2-.5-.2-.3-.6-.5-.9-.5h-8.8c-.6 0-1.1.4-1.1.9v22.4c0 2.2-.1 4.2-1.1 5.1-.2.3-.3.5-.3.8 0 .2.1.4.2.5h.1c.4.3 1.1.3 1.5 0 1.6-1.2 1.8-3.4 1.8-6.3V31.1h6.5V53c0 7.7-1.1 11.3-7.7 11.3-2.8 0-5.7-1.8-5.7-5.8V30.3c.2-.3-.3-.8-.8-.8z" fill="#323232" data-color="1"></path>
    <path d="M341.4 29.6c-.5 0-.9.3-1.1.7l-7 21.7-4.1 13c-.2.3 0 .5.2.8l.2.2h.2c.1 0 .2.1.3.1h9.1c.1 0 .3-.1.4-.2h.1c.1 0 .2-.2.3-.5l2.7-10.6c.3-1.5.8-1.9 3.1-1.9h3.9c.2 0 .3-.1.3-.1h.1c.2-.1.2-.2.3-.3v-.1l.1-.1c.1-.1.2-.2.2-.4v-.2l-3.8-15.1c-.2-.5-.7-.6-1.1-.6-.4 0-1 .2-1.1.7l-2.6 11.1c0 .1 0 .3.1.5.2.3.5.5.8.6.6.1 1.1-.3 1.2-.6l1.7-7 2.4 9.9h-2.6c-3.2 0-4.7 1-5.3 3.4l-2.4 9.8h-6.6l3.8-12 6.8-21h7.6l.1.2 10.6 32.7h-6.5l-1.1-4.2-.6-2.5c-.2-.5-.7-.7-1.2-.7h-4.5c-.6 0-1.1.4-1.1.9s.6 1 1.1 1h3.7l1.7 6.9.2.3.1.1c.1.1.1.2.2.2l.1.1v.1c.1.1.2.1.2.1h9c.2 0 .6 0 1-.4.1-.1.2-.4.2-.8l-4-13.2-6.8-21.9c-.2-.5-.7-.6-1.1-.6h-9.5z" fill="#323232" data-color="1"></path>
    <path d="M269.5 66.5c6 0 7.2-3.5 7.6-4.9l.1-.4c.7-1.8.7-5.9.6-9.3v-3.6c0-5.1-.2-8.3-1.1-10.3-.9-1.8-2.3-2.9-4.1-2.9-2.2 0-3.4.9-4.3 2.9-.9 2.2-.9 7.1-.9 9.4 0 .3 0 6.5.6 9.1.2 1.3.7 2.9 2.5 3.5.5.3 1.1 0 1.4-.3.1-.1.2-.4.1-.6-.1-.3-.3-.6-.6-.6-.6-.2-1.1-.7-1.4-2.2-.5-2.1-.6-7.6-.6-8.8 0-1.9 0-7 .7-8.8.6-1.4 1.1-1.5 2.4-1.5.7 0 1.5.2 2.1 1.5.7 1.4.7 4.9.7 9.5v1.4c0 .2.1.4.1.7.2 5.2-.1 9-.6 10.5l-.1.4c-.5 1.4-1.2 3.5-5.5 3.5h-.1c-2.1 0-4.1-.9-5.6-2.6-2.4-2.8-3.8-8-3.8-13.8 0-12 3.8-17.3 12.4-17.3 8.8 0 12.6 5.2 12.6 16.7 0 6-1.1 10.5-3.4 13.9l-.1.1c-.3.4-.3.7-.2 1.2l2.3 2.2h-5.1c-.6 0-1.1.4-1.1.9s.6 1 1.1 1h7.5c.5 0 .8-.3.9-.4v-.1c.2-.4.1-.8-.1-1.1l-3.4-3.2.2-.2c2.4-3.4 3.5-8.1 3.5-14.3.1-6.5-1.2-11.1-3.8-14.3-2.4-2.9-6-4.3-10.9-4.3-13 0-14.5 10.9-14.5 19.1.4 8.8 3.5 18.3 11.9 18.3z" fill="#323232" data-color="1"></path>
    <path d="M405.3 47.6c0 .4.5.9 1.1.9.6 0 1.1-.4 1.1-.9V31.1h20.4v4.3h-12.6c-.6 0-1.1.4-1.1 1v8.1c0 .4.5 1 1.1 1h12v3.9h-16.8c-3 .1-5.4 1.9-5.4 4.2v11.5c0 .4.5 1 1.1 1h22.5c.6 0 1.1-.4 1.1-1v-6c0-.4-.5-1-1.1-1H416v-3.6c0-.4-.5-.9-1.1-.9-.5 0-1.1.4-1.1.9v4.4c0 .4.5 1 1.1 1h12.6v4.3h-20.3V53.6c0-1.3 1.6-2.4 3.5-2.4h17.7c.6 0 1.1-.4 1.1-.9v-5.8c0-.4-.5-1-1.1-1h-12.2v-6.3l12.6.1c.6 0 1-.4 1-.9v-6c0-.4-.5-.9-1.1-.9h-22.5c-.6 0-1.1.4-1.1.9v17.3h.2z" fill="#323232" data-color="1"></path>
    <path d="M222.7 56c-.1.3-.1.4-.1.7l.1.3c1.1 3 3.4 9.3 13.6 9.3.7 0 4.2-.1 7.2-1.1 4.3-1.5 7.1-5.4 6.8-9.2-.2-3.8-2.7-6.8-6.8-8-1.5-.5-3.3-.9-6-1.2-6-1.1-10.3-2-11.4-6.1-.6-2.2.1-4.3 2-6.1 2.1-1.8 5.4-3.1 8.8-3.1 5 0 8.5 2 10.4 5.9l.2.3-4.7 1.6-.1-.2c-.5-1.1-1.4-2.6-3.4-3.2-2.5-.8-5.1 0-6.3 1.9-.6 1-.7 1.8-.6 2.7.2 1.2 1.2 2.3 2.6 3h.2c.2 0 1 .1 1.2-.2.2-.2.2-.4.2-.6 0-.3-.2-.6-.6-.8-.9-.5-1.5-1.2-1.6-1.9-.1-.5 0-1 .2-1.5.7-1.2 2.2-1.6 3.7-1.2 1.5.4 2.1 1.8 2.5 3.2l.1.1c.1.1.3.3.6.4.3.1.6.1.9 0l6.8-2.4c.7-.4.7-.9.6-1.2-2-5.3-6.5-8.2-12.9-8.2-4.2 0-8.1 1.4-10.2 3.7-1.4 1.2-3.5 3.8-2.6 7.7 1.2 5.4 7 6.4 12.6 7.5l.6.1c.2 0 .5.1.7.1s.4.1.7.1c1.3.2 2.8.6 4.3 1 3.3 1.2 5.2 3.4 5.4 6.2.2 3.3-2 6.1-5.5 7.6-1.6.6-3.8.9-6.3.9-7.6 0-9.8-3.6-11.2-7l-.1-.3 5.1-1.4.1.2c.7 1.7 1.7 3.6 4.6 4.3 2 .3 3.5.1 4.7-.7 1.5-1 2.4-2.2 2.4-3.6 0-2.9-2.4-4-4.1-4.7-.4-.1-1.1-.1-1.4.3l-.1.1c-.1.1-.1.4 0 .5.1.3.2.6.6.6 1.7.7 2.9 1.2 2.9 2.9 0 1-.5 1.7-1.4 2.1-.7.5-1.6.6-3 .3-2.2-.5-2.8-2.1-3.4-4.1-.1-.3-.2-.4-.5-.6h-.9l-7.2 2.1c-.7.4-.9.6-1 .9z" fill="#323232" data-color="1"></path>
    <path d="M381.5 29.6h-10.9c-.6 0-1.1.4-1.1 1V43c0 .4.5 1 1.1 1 .6 0 1.1-.4 1.1-1V31.3h9.8c4.1 0 7.9 0 10.3 3 1.6 1.8 2.5 4.3 2.5 7.2 0 3.5-1.5 7-3.9 8.4-.1 0-.2.1-.2.1-.1 0-.1 0-.1.1v.1h-.3c-.3.2-.5.5-.5.8 0 .2.1.4.2.6l5.6 12.8h-7.2l-.1-.2-4.3-11.9c-.1-.2-.2-.4-.3-.5-.1 0-.2-.1-.2-.2h-.1c-.1-.1-.2-.2-.4-.2h-3.1c-.6 0-1.1.4-1.1 1v11.8h-6.7V48.8c0-1.2.3-1.8 2.4-1.8h7.5c4.1 0 5.7-1.7 5.7-6.2 0-3.9-2-5.8-5.7-5.8h-2.1c-.6 0-1.1.4-1.1.9V42c0 .4.5 1 1.1 1 .5 0 1.1-.4 1.1-1v-5.2h1.1c2.6 0 3.5 1.2 3.5 4.1 0 4.2-1.4 4.4-3.5 4.4H374c-2.2 0-4.5.4-4.5 3.4V65c-.1.3-.1.5 0 .7.2.3.4.5.8.5h8.8c.6 0 1.1-.4 1.1-1v-12h1.3l4.4 12.2c.2.5.7.6 1.1.6h9.4c.3 0 .7-.1.9-.4.3-.4.2-.8.2-.9l-5.9-13.4.2-.1c3-1.8 4.8-5.5 4.8-9.8 0-3.2-1.1-6-2.8-8.2-3.4-3.6-8.5-3.6-12.3-3.6z" fill="#323232" data-color="1"></path>
    <path d="M1.2 66.5h18.4c.5 0 1.1-.4 1.1-1V59c0-.5-.4-1-1.1-1H4.7c-1.5 0-2.4-.2-2.4-2.3V30.6h6.2l.1 24c0 .6.4 1 1.1 1 .5 0 1.1-.4 1.1-.9l-.2-24.9c0-.5-.4-1-1.1-1H1.3c-.5 0-1.1.4-1.1 1v26c0 3.6 2.5 4.1 4.5 4.1h13.9v4.8H1.2c-.5 0-1.1.4-1.1 1 0 .5.6.8 1.1.8z" fill="#323232" data-color="1"></path>
    <path d="M90.3 29H80.2c-.5 0-1.1.4-1.1.9v12.9c0 .6.4 1 1.1 1 .5 0 1.1-.4 1.1-1V30.6h9.2c3.8 0 7.4 0 9.7 3.1 1.6 2 2.4 4.3 2.4 7.5 0 3.7-1.5 7.1-3.7 8.6-.1 0-.2.1-.2.1-.1 0-.1 0-.1.1l-.2.2h-.2c-.3.2-.4.4-.4.8 0 .3.1.4.1.4v.1l5.3 13.1h-6.6l-4.2-12.5c-.1-.2-.2-.4-.3-.4-.1 0-.2-.1-.2-.2h-.1c-.1-.1-.2-.2-.4-.2h-2.8c-.5 0-1.1.4-1.1 1v12.4h-6V48.8c0-1.2.2-1.8 2.3-1.8h6.9c3.9 0 5.3-1.7 5.3-6.3 0-4.1-1.7-6.1-5.3-6.1h-2c-.5 0-1.1.4-1.1 1v6.3c0 .6.4.9 1.1.9.6 0 1-.4 1-.9v-5.5h1.1c2.4 0 3.3 1.2 3.3 4.3 0 4.3-1.2 4.7-3.3 4.7h-6.9c-2 0-4.3.4-4.3 3.6v16.9c-.1.1-.1.2 0 .4.1.3.4.5.9.5h8.2c.6 0 .9-.4.9-.9V53.5h1.1L94.6 66c.2.4.5.6 1 .6h8.9c.2 0 .7-.2.9-.4.3-.4.2-.8.2-.9l-5.8-13.8.2-.1c2.8-2 4.6-5.8 4.6-10.2 0-3.3-.9-6.1-2.7-8.4C98.7 29 94.1 29 90.3 29z" fill="#323232" data-color="1"></path>
    <path d="M180.2 29.8c0 .1 0 .3.2.4v.1l8 20.1v15.2c0 .6.4.9 1.1.9h8.4c.5 0 1.1-.4 1.1-.9v-15c0-.6-.4-.9-1.1-.9-.5 0-1.1.4-1.1.9v14.2h-6.3V50.3c0-.1 0-.1-.1-.2l-7.6-19.3h5.8l.1.1c1.1 2.6 5 12 5.9 14.5.4 1.2 1.6 1.9 2.9 1.9 1.3 0 2.7-.8 3.2-1.8v-.1c.2-.4 5.4-13.4 5.9-15.2.1-.2.2-.5-.2-1v-.1c0-.1-.2-.2-.7-.2h-8c-.4 0-.8.3-1.1.7l-1.9 6.6c.2.9.7 1 .8 1 .5.1 1.1 0 1.3-.6l1.8-5.9h5.7l-.2.3c-1.4 3.5-4.6 11.5-5.3 13.5-.2.4-.8.8-1.3.8-.7 0-.9-.4-1-.6-1.3-3.3-6.3-15.1-6.3-15.2-.1-.4-.4-.6-1-.6h-8c-.3 0-.7.1-.9.3-.2.2-.2.2-.2.3l.1.3z" fill="#323232" data-color="1"></path>
    <path d="M36.8 28.9h-8.1c-.5 0-1.1.4-1.1 1v4c0 .6.4 1 1.1 1 .5 0 1.1-.4 1.1-1v-3.3h6.1v33.8h-6.1V40.8c0-2.1.9-2.3 2.4-2.3h1c.5 0 1.1-.4 1.1-1s-.4-.9-1.1-.9h-1c-1.3 0-4.5 0-4.5 4.1v24.8c0 .6.4.9 1.1.9h8.1c.5 0 1.1-.4 1.1-.9V29.8c-.2-.6-.6-.9-1.2-.9z" fill="#323232" data-color="1"></path>
    <path d="M68 31.7C65.3 29 62.2 29 57.1 29H46c-.5 0-1.1.4-1.1.9v5.8c0 .6.4 1 1.1 1h11.1c2.4 0 3.5 1.2 3.5 3.6 0 1.4 0 3.3-3.5 3.3H53c-1.3 0-2.7.9-2.7 2.3v3.5c0 1.2 1.1 2.3 2.7 2.3h4.1c2.4 0 3 .2 3.6 1.1.3.6.7 1.3.7 2.5 0 3-1.1 3.9-3.9 3.9h-6c-.5 0-1.1.4-1.1 1s.4.9 1.1.9h6c4.1 0 5.9-1.7 5.9-5.7 0-1.6-.6-2.8-1-3.4-1.3-1.8-3.1-1.9-5.3-1.9H53c-.3 0-.7-.2-.7-.4V46c0-.3.2-.5.7-.5h4.1c5.5 0 5.5-3.7 5.5-5.2 0-3.4-2-5.4-5.5-5.4H47v-4.2h10.1c4.9 0 7.2 0 9.4 2.2 1.5 1.4 2.3 3.5 2.3 6.2 0 5.5-3 6.4-4.4 6.9h-.1c-.4.1-.6.4-.6 1 0 .1.1.6.7.9h.1c1.5.5 5.4 1.7 5.4 8.1 0 2.9-1 5.1-2.9 6.8-2.2 1.9-6.4 1.9-8.5 1.9H47V39.9c0-.6-.4-.9-1.1-.9-.5 0-1.1.4-1.1.9v25.7c.2.6.6.9 1.1.9h12.5c2.3 0 7.1 0 9.8-2.5 2.4-2.2 3.5-4.8 3.5-8.1-.1-5.2-2.4-7.7-4.5-8.8l-.2-.3.3-.2c2.1-1.4 3.3-4 3.3-7.6.1-3.2-.7-5.6-2.6-7.3z" fill="#323232" data-color="1"></path>
    <path d="M158.3 29h-10.2c-.5 0-1.1.4-1.1.9v12.9c0 .6.4 1 1.1 1 .5 0 1.1-.4 1.1-1V30.6h9.2c3.8 0 7.4 0 9.7 3.1 1.6 2 2.4 4.3 2.4 7.5 0 3.7-1.5 7.1-3.7 8.6-.1 0-.2.1-.2.1-.1 0-.1 0-.1.1l-.2.2h-.1c-.4 0-.5.5-.5.8 0 .3.1.4.1.4v.1l5.3 13.1h-6.6l-4.2-12.5c-.1-.2-.2-.4-.3-.4-.1 0-.2-.1-.2-.2h-.1c-.1-.1-.2-.2-.4-.2h-2.8c-.5 0-1.1.4-1.1 1v12.4h-6.1V48.8c0-1.2.2-1.8 2.3-1.8h6.9c3.9 0 5.4-1.7 5.4-6.3 0-4.1-1.7-6.1-5.4-6.1h-2c-.5 0-1.1.4-1.1 1v6.3c0 .6.4.9 1.1.9.9 0 .9-.7.9-.9v-5.5h1.1c2.4 0 3.3 1.2 3.3 4.3 0 4.3-1.2 4.7-3.3 4.7h-6.9c-2 0-4.3.4-4.3 3.6v16.9c-.1.1-.1.2 0 .4.1.3.6.5.9.5h8.2c.6 0 .9-.4.9-.9V53.5h1.1l4.1 12.6c.2.4.5.6 1 .6h8.9c.2 0 .7-.2.9-.4.3-.4.2-.8.2-.9l-5.8-13.8.2-.1c2.8-2 4.6-5.8 4.6-10.2 0-3.3-.9-6.1-2.7-8.4-3.1-3.9-7.7-3.9-11.5-3.9z" fill="#323232" data-color="1"></path>
    <path d="M121.2 28.9c-.4 0-.8.3-1.1.7l-6.5 22.2-3.7 13.5c-.1.1-.1.3.1.6l.1.1-.1.1v.2c.1.3.3.3.5.3h8.5c.1 0 .3-.1.4-.2h.1c.1 0 .2-.2.3-.5l2.4-10.9c.2-1.5.7-2 3-2h3.7c.2 0 .3-.1.3-.1h.1c.2-.1.2-.2.2-.3l.1-.1c.1-.1.2-.2.2-.4v-.3l-3.5-15.7c-.2-.4-.5-.6-1-.6s-.9.4-1 .6l-2.4 11.7c-.1.2 0 .3.1.5v.1c.1.2.3.5.8.5.5.1.9-.1 1.2-.6l1.5-7.1 2.2 10.1h-2.4c-3.3 0-4.4 1.3-5 3.5l-2.1 10h-6L122 31h7.2l6.3 21.6 3.6 12.4h-6l-1.5-7c-.2-.4-.7-.7-1.1-.7h-4.1c-.5 0-1.1.4-1.1 1s.4.9 1.1.9h3.4l.3 1.8 1.2 5.2.2.3.1.1c.1.1.1.2.2.2l.1.1v.1c.1.1.2.1.2.1h8.3c.2 0 .7-.2.9-.4.1-.1.2-.4.2-.8l-4-13.9-6.5-22.2c-.1-.4-.5-.6-1-.6h-8.8z" fill="#323232" data-color="1"></path>
  </g>
</svg>
